<svg width="591" height="113" viewBox="0 0 591 113" fill="none" xmlns="http://www.w3.org/2000/svg">
<g id="Frame 1" clip-path="url(#clip0_1_12)">
<path id="Tec" d="M221.609 20.75V89H207.594V20.75H221.609ZM242.609 20.75V31.7656H186.922V20.75H242.609ZM268.719 89.9375C264.781 89.9375 261.25 89.3125 258.125 88.0625C255 86.7812 252.344 85.0156 250.156 82.7656C248 80.5156 246.344 77.9062 245.188 74.9375C244.031 71.9375 243.453 68.75 243.453 65.375V63.5C243.453 59.6562 244 56.1406 245.094 52.9531C246.188 49.7656 247.75 47 249.781 44.6562C251.844 42.3125 254.344 40.5156 257.281 39.2656C260.219 37.9844 263.531 37.3438 267.219 37.3438C270.812 37.3438 274 37.9375 276.781 39.125C279.562 40.3125 281.891 42 283.766 44.1875C285.672 46.375 287.109 49 288.078 52.0625C289.047 55.0938 289.531 58.4688 289.531 62.1875V67.8125H249.219V58.8125H276.266V57.7812C276.266 55.9062 275.922 54.2344 275.234 52.7656C274.578 51.2656 273.578 50.0781 272.234 49.2031C270.891 48.3281 269.172 47.8906 267.078 47.8906C265.297 47.8906 263.766 48.2812 262.484 49.0625C261.203 49.8438 260.156 50.9375 259.344 52.3438C258.562 53.75 257.969 55.4062 257.562 57.3125C257.188 59.1875 257 61.25 257 63.5V65.375C257 67.4062 257.281 69.2812 257.844 71C258.438 72.7188 259.266 74.2031 260.328 75.4531C261.422 76.7031 262.734 77.6719 264.266 78.3594C265.828 79.0469 267.594 79.3906 269.562 79.3906C272 79.3906 274.266 78.9219 276.359 77.9844C278.484 77.0156 280.312 75.5625 281.844 73.625L288.406 80.75C287.344 82.2812 285.891 83.75 284.047 85.1562C282.234 86.5625 280.047 87.7188 277.484 88.625C274.922 89.5 272 89.9375 268.719 89.9375ZM318.172 79.3906C319.828 79.3906 321.297 79.0781 322.578 78.4531C323.859 77.7969 324.859 76.8906 325.578 75.7344C326.328 74.5469 326.719 73.1562 326.75 71.5625H339.453C339.422 75.125 338.469 78.2969 336.594 81.0781C334.719 83.8281 332.203 86 329.047 87.5938C325.891 89.1562 322.359 89.9375 318.453 89.9375C314.516 89.9375 311.078 89.2812 308.141 87.9688C305.234 86.6562 302.812 84.8438 300.875 82.5312C298.938 80.1875 297.484 77.4688 296.516 74.375C295.547 71.25 295.062 67.9062 295.062 64.3438V62.9844C295.062 59.3906 295.547 56.0469 296.516 52.9531C297.484 49.8281 298.938 47.1094 300.875 44.7969C302.812 42.4531 305.234 40.625 308.141 39.3125C311.047 38 314.453 37.3438 318.359 37.3438C322.516 37.3438 326.156 38.1406 329.281 39.7344C332.438 41.3281 334.906 43.6094 336.688 46.5781C338.5 49.5156 339.422 53 339.453 57.0312H326.75C326.719 55.3438 326.359 53.8125 325.672 52.4375C325.016 51.0625 324.047 49.9688 322.766 49.1562C321.516 48.3125 319.969 47.8906 318.125 47.8906C316.156 47.8906 314.547 48.3125 313.297 49.1562C312.047 49.9688 311.078 51.0938 310.391 52.5312C309.703 53.9375 309.219 55.5469 308.938 57.3594C308.688 59.1406 308.562 61.0156 308.562 62.9844V64.3438C308.562 66.3125 308.688 68.2031 308.938 70.0156C309.188 71.8281 309.656 73.4375 310.344 74.8438C311.062 76.25 312.047 77.3594 313.297 78.1719C314.547 78.9844 316.172 79.3906 318.172 79.3906Z" fill="#6778A3"/>
<path id="MEX" d="M367.516 20.75H379.422L396.953 70.8594L414.484 20.75H426.391L401.734 89H392.172L367.516 20.75ZM361.094 20.75H372.953L375.109 69.5938V89H361.094V20.75ZM420.953 20.75H432.859V89H418.797V69.5938L420.953 20.75ZM490.984 78.0312V89H454.656V78.0312H490.984ZM459.25 20.75V89H445.188V20.75H459.25ZM486.25 48.5469V59.2344H454.656V48.5469H486.25ZM490.938 20.75V31.7656H454.656V20.75H490.938ZM510.766 20.75L523.609 44.5625L536.453 20.75H552.531L532.703 54.5938L553.047 89H536.828L523.609 64.7188L510.391 89H494.078L514.469 54.5938L494.594 20.75H510.766Z" fill="#5B9B47"/>
<path id="light" d="M93 58.5L23.25 98.7702L23.25 18.2298L93 58.5Z"  fill-opacity="0.5"/>
<path id="mid" d="M126 58.5L56.25 98.7702L56.25 18.2298L126 58.5Z"  fill-opacity="0.7"/>
<path id="Dark" d="M93 58.5L23.25 98.7702L23.25 18.2298L93 58.5Z"  fill-opacity="0.84"/>
</g>
<defs>
<clipPath id="clip0_1_12">
<rect width="591" height="113" fill="white"/>
</clipPath>
</defs>
</svg>
